<svg xmlns="http://www.w3.org/2000/svg" width="600" height="390" aria-label="A chart." style="overflow:hidden">
  <path fill="#fff" d="M0 0h600v390H0z"/>
  <text x="115" y="52.05" stroke-width="0" font-family="Arial" font-size="13" font-weight="bold">Parser Benchmark</text>
  <path fill="none" d="M115 41h371v13H115zm384 34h88v55h-88z"/>
  <path fill="none" d="M499 75h88v13h-88z"/>
  <text x="530" y="86.05" fill="#222" stroke-width="0" font-family="Arial" font-size="13">oxc</text>
  <path fill="#33bacc" d="M499 75h26v13h-26z"/>
  <path fill="none" d="M499 96h88v13h-88z"/>
  <text x="530" y="107.05" fill="#222" stroke-width="0" font-family="Arial" font-size="13">swc</text>
  <path fill="#ff8080" d="M499 96h26v13h-26z"/>
  <path fill="none" d="M499 117h88v13h-88z"/>
  <text x="530" y="128.05" fill="#222" stroke-width="0" font-family="Arial" font-size="13">biome</text>
  <path fill="#f4c649" d="M499 117h26v13h-26z"/>
  <path fill="none" d="M115 75h371v241H115z"/>
  <g>
    <path fill="#ccc" d="M115 75h1v241h-1zm93 0h1v241h-1zm92 0h1v241h-1zm93 0h1v241h-1zm92 0h1v241h-1z"/>
    <path fill="#ebebeb" d="M161 75h1v241h-1zm93 0h1v241h-1zm92 0h1v241h-1zm93 0h1v241h-1z"/>
    <path fill="#33bacc" d="M116 121h92v49h-92z"/>
    <path fill="#ff8080" d="M116 171h191v49H116z"/>
    <path fill="#f4c649" d="M116 221h310v49H116z"/>
    <path fill="#333" d="M115 75h1v241h-1z"/>
  </g>
  <text x="115.5" y="335.05" fill="#444" stroke-width="0" font-family="Arial" font-size="13" text-anchor="middle">0</text>
  <text x="208" y="335.05" fill="#444" stroke-width="0" font-family="Arial" font-size="13" text-anchor="middle">50</text>
  <text x="300.5" y="335.05" fill="#444" stroke-width="0" font-family="Arial" font-size="13" text-anchor="middle">100</text>
  <text x="393" y="335.05" fill="#444" stroke-width="0" font-family="Arial" font-size="13" text-anchor="middle">150</text>
  <text x="485.5" y="335.05" fill="#444" stroke-width="0" font-family="Arial" font-size="13" text-anchor="middle">200</text>
  <text x="102" y="200.05" fill="#222" stroke-width="0" font-family="Arial" font-size="13" text-anchor="end">single-thread</text>
  <text x="300.5" y="368.05" fill="#222" stroke-width="0" font-family="Arial" font-size="13" font-style="italic" text-anchor="middle">time (ms)</text>
  <path fill="none" d="M115 357h371v13H115z"/>
</svg>
